<mxfile host="app.diagrams.net" agent="Mozilla/5.0 (Windows NT 10.0; Win64; x64) AppleWebKit/537.36 (KHTML, like Gecko) Chrome/136.0.0.0 Safari/537.36 Edg/136.0.0.0" version="27.0.3">
  <diagram name="第 1 页" id="J3vB-FwPaxZ_yUchfMtn">
    <mxGraphModel dx="1500" dy="826" grid="1" gridSize="10" guides="1" tooltips="1" connect="1" arrows="1" fold="1" page="1" pageScale="1" pageWidth="827" pageHeight="1169" math="0" shadow="0">
      <root>
        <mxCell id="0" />
        <mxCell id="1" parent="0" />
        <mxCell id="3fFJmNPRNffP4QOuDfKV-3" value="&lt;font face=&quot;Helvetica&quot; style=&quot;font-size: 16px;&quot;&gt;报警信息&lt;/font&gt;" style="rounded=0;whiteSpace=wrap;html=1;" vertex="1" parent="1">
          <mxGeometry x="460" y="440" width="80" height="40" as="geometry" />
        </mxCell>
        <mxCell id="3fFJmNPRNffP4QOuDfKV-7" value="&lt;font style=&quot;font-size: 16px;&quot;&gt;设备&lt;/font&gt;" style="rounded=0;whiteSpace=wrap;html=1;" vertex="1" parent="1">
          <mxGeometry x="210" y="420" width="80" height="40" as="geometry" />
        </mxCell>
        <mxCell id="3fFJmNPRNffP4QOuDfKV-29" value="&lt;p class=&quot;MsoNormal&quot;&gt;&lt;font face=&quot;Helvetica&quot; style=&quot;font-size: 16px;&quot;&gt;设备名称&lt;/font&gt;&lt;/p&gt;" style="ellipse;whiteSpace=wrap;html=1;" vertex="1" parent="1">
          <mxGeometry x="160" y="330" width="80" height="40" as="geometry" />
        </mxCell>
        <mxCell id="3fFJmNPRNffP4QOuDfKV-30" value="&lt;p class=&quot;MsoNormal&quot;&gt;&lt;font face=&quot;Helvetica&quot; style=&quot;font-size: 16px;&quot;&gt;在线状态&lt;/font&gt;&lt;/p&gt;" style="ellipse;whiteSpace=wrap;html=1;" vertex="1" parent="1">
          <mxGeometry x="260" y="330" width="80" height="40" as="geometry" />
        </mxCell>
        <mxCell id="3fFJmNPRNffP4QOuDfKV-31" value="&lt;p class=&quot;MsoNormal&quot;&gt;&lt;font face=&quot;Helvetica&quot; style=&quot;font-size: 16px;&quot;&gt;用户编号&lt;/font&gt;&lt;/p&gt;" style="ellipse;whiteSpace=wrap;html=1;" vertex="1" parent="1">
          <mxGeometry x="300" y="510" width="80" height="40" as="geometry" />
        </mxCell>
        <mxCell id="3fFJmNPRNffP4QOuDfKV-32" value="&lt;p class=&quot;MsoNormal&quot;&gt;&lt;font face=&quot;Helvetica&quot; style=&quot;font-size: 16px;&quot;&gt;最后活跃时间&lt;/font&gt;&lt;/p&gt;" style="ellipse;whiteSpace=wrap;html=1;" vertex="1" parent="1">
          <mxGeometry x="170" y="520" width="110" height="40" as="geometry" />
        </mxCell>
        <mxCell id="3fFJmNPRNffP4QOuDfKV-33" value="&lt;p class=&quot;MsoNormal&quot;&gt;&lt;font face=&quot;Helvetica&quot; style=&quot;font-size: 16px;&quot;&gt;所属产品编号&lt;/font&gt;&lt;/p&gt;" style="ellipse;whiteSpace=wrap;html=1;" vertex="1" parent="1">
          <mxGeometry x="60" y="400" width="110" height="40" as="geometry" />
        </mxCell>
        <mxCell id="3fFJmNPRNffP4QOuDfKV-34" value="&lt;p class=&quot;MsoNormal&quot;&gt;&lt;span style=&quot;color: rgb(0, 0, 0);&quot;&gt;&lt;font face=&quot;Helvetica&quot; style=&quot;font-size: 16px;&quot;&gt;创建时间&lt;/font&gt;&lt;/span&gt;&lt;/p&gt;" style="ellipse;whiteSpace=wrap;html=1;" vertex="1" parent="1">
          <mxGeometry x="90" y="480" width="90" height="40" as="geometry" />
        </mxCell>
        <mxCell id="3fFJmNPRNffP4QOuDfKV-35" value="" style="endArrow=none;html=1;rounded=0;entryX=1;entryY=0.5;entryDx=0;entryDy=0;exitX=0;exitY=0.5;exitDx=0;exitDy=0;" edge="1" parent="1" source="3fFJmNPRNffP4QOuDfKV-7" target="3fFJmNPRNffP4QOuDfKV-33">
          <mxGeometry width="50" height="50" relative="1" as="geometry">
            <mxPoint x="210" y="440" as="sourcePoint" />
            <mxPoint x="550" y="170" as="targetPoint" />
          </mxGeometry>
        </mxCell>
        <mxCell id="3fFJmNPRNffP4QOuDfKV-36" value="" style="endArrow=none;html=1;rounded=0;entryX=0.417;entryY=1.06;entryDx=0;entryDy=0;exitX=0.25;exitY=0;exitDx=0;exitDy=0;entryPerimeter=0;" edge="1" parent="1" source="3fFJmNPRNffP4QOuDfKV-7" target="3fFJmNPRNffP4QOuDfKV-29">
          <mxGeometry width="50" height="50" relative="1" as="geometry">
            <mxPoint x="540" y="229.5" as="sourcePoint" />
            <mxPoint x="598" y="170.5" as="targetPoint" />
          </mxGeometry>
        </mxCell>
        <mxCell id="3fFJmNPRNffP4QOuDfKV-37" value="" style="endArrow=none;html=1;rounded=0;exitX=0.75;exitY=0;exitDx=0;exitDy=0;" edge="1" parent="1" source="3fFJmNPRNffP4QOuDfKV-7" target="3fFJmNPRNffP4QOuDfKV-30">
          <mxGeometry width="50" height="50" relative="1" as="geometry">
            <mxPoint x="538" y="245.5" as="sourcePoint" />
            <mxPoint x="640" y="200" as="targetPoint" />
          </mxGeometry>
        </mxCell>
        <mxCell id="3fFJmNPRNffP4QOuDfKV-38" value="" style="endArrow=none;html=1;rounded=0;entryX=0.327;entryY=-0.035;entryDx=0;entryDy=0;exitX=1;exitY=1;exitDx=0;exitDy=0;entryPerimeter=0;" edge="1" parent="1" source="3fFJmNPRNffP4QOuDfKV-7" target="3fFJmNPRNffP4QOuDfKV-31">
          <mxGeometry width="50" height="50" relative="1" as="geometry">
            <mxPoint x="538" y="260" as="sourcePoint" />
            <mxPoint x="670" y="234.5" as="targetPoint" />
          </mxGeometry>
        </mxCell>
        <mxCell id="3fFJmNPRNffP4QOuDfKV-39" value="" style="endArrow=none;html=1;rounded=0;" edge="1" parent="1" target="3fFJmNPRNffP4QOuDfKV-32">
          <mxGeometry width="50" height="50" relative="1" as="geometry">
            <mxPoint x="270" y="462" as="sourcePoint" />
            <mxPoint x="652" y="280" as="targetPoint" />
          </mxGeometry>
        </mxCell>
        <mxCell id="3fFJmNPRNffP4QOuDfKV-40" value="" style="endArrow=none;html=1;rounded=0;entryX=0.607;entryY=0.045;entryDx=0;entryDy=0;entryPerimeter=0;" edge="1" parent="1" target="3fFJmNPRNffP4QOuDfKV-34">
          <mxGeometry width="50" height="50" relative="1" as="geometry">
            <mxPoint x="240" y="460" as="sourcePoint" />
            <mxPoint x="640" y="330" as="targetPoint" />
          </mxGeometry>
        </mxCell>
        <mxCell id="3fFJmNPRNffP4QOuDfKV-66" value="&lt;span style=&quot;font-size: 16px;&quot;&gt;触发&lt;/span&gt;" style="rhombus;whiteSpace=wrap;html=1;" vertex="1" parent="1">
          <mxGeometry x="350" y="390" width="80" height="60" as="geometry" />
        </mxCell>
        <mxCell id="3fFJmNPRNffP4QOuDfKV-67" value="" style="endArrow=none;html=1;rounded=0;exitX=0.5;exitY=0;exitDx=0;exitDy=0;" edge="1" parent="1" source="3fFJmNPRNffP4QOuDfKV-66">
          <mxGeometry width="50" height="50" relative="1" as="geometry">
            <mxPoint x="490" y="340" as="sourcePoint" />
            <mxPoint x="290" y="420" as="targetPoint" />
          </mxGeometry>
        </mxCell>
        <mxCell id="3fFJmNPRNffP4QOuDfKV-68" value="" style="endArrow=none;html=1;rounded=0;exitX=0;exitY=0.25;exitDx=0;exitDy=0;entryX=0.5;entryY=1;entryDx=0;entryDy=0;" edge="1" parent="1" source="3fFJmNPRNffP4QOuDfKV-3" target="3fFJmNPRNffP4QOuDfKV-66">
          <mxGeometry width="50" height="50" relative="1" as="geometry">
            <mxPoint x="640" y="540" as="sourcePoint" />
            <mxPoint x="570" y="440" as="targetPoint" />
          </mxGeometry>
        </mxCell>
        <mxCell id="3fFJmNPRNffP4QOuDfKV-69" value="&lt;p class=&quot;MsoNormal&quot;&gt;&lt;font face=&quot;Helvetica&quot; style=&quot;font-size: 16px;&quot;&gt;所属产品类型&lt;/font&gt;&lt;/p&gt;" style="ellipse;whiteSpace=wrap;html=1;" vertex="1" parent="1">
          <mxGeometry x="605" y="420" width="120" height="40" as="geometry" />
        </mxCell>
        <mxCell id="3fFJmNPRNffP4QOuDfKV-70" value="&lt;p class=&quot;MsoNormal&quot;&gt;&lt;span style=&quot;color: rgb(0, 0, 0);&quot;&gt;&lt;font face=&quot;Helvetica&quot; style=&quot;font-size: 16px;&quot;&gt;报警类型&lt;/font&gt;&lt;/span&gt;&lt;/p&gt;" style="ellipse;whiteSpace=wrap;html=1;" vertex="1" parent="1">
          <mxGeometry x="610" y="480" width="80" height="40" as="geometry" />
        </mxCell>
        <mxCell id="3fFJmNPRNffP4QOuDfKV-71" value="&lt;p class=&quot;MsoNormal&quot;&gt;&lt;font face=&quot;Helvetica&quot; style=&quot;font-size: 16px;&quot;&gt;报警序号&lt;/font&gt;&lt;/p&gt;" style="ellipse;whiteSpace=wrap;html=1;" vertex="1" parent="1">
          <mxGeometry x="540" y="340" width="80" height="40" as="geometry" />
        </mxCell>
        <mxCell id="3fFJmNPRNffP4QOuDfKV-72" value="&lt;p class=&quot;MsoNormal&quot;&gt;&lt;font face=&quot;Helvetica&quot; style=&quot;font-size: 16px;&quot;&gt;所属产品编号&lt;/font&gt;&lt;/p&gt;" style="ellipse;whiteSpace=wrap;html=1;" vertex="1" parent="1">
          <mxGeometry x="610" y="370" width="110" height="40" as="geometry" />
        </mxCell>
        <mxCell id="3fFJmNPRNffP4QOuDfKV-73" value="&lt;p class=&quot;MsoNormal&quot;&gt;&lt;font face=&quot;Helvetica&quot; style=&quot;font-size: 16px;&quot;&gt;报警值&lt;/font&gt;&lt;/p&gt;" style="ellipse;whiteSpace=wrap;html=1;" vertex="1" parent="1">
          <mxGeometry x="400" y="520" width="80" height="40" as="geometry" />
        </mxCell>
        <mxCell id="3fFJmNPRNffP4QOuDfKV-74" value="&lt;p class=&quot;MsoNormal&quot;&gt;&lt;font face=&quot;Helvetica&quot; style=&quot;font-size: 16px;&quot;&gt;报警时间&lt;/font&gt;&lt;/p&gt;" style="ellipse;whiteSpace=wrap;html=1;" vertex="1" parent="1">
          <mxGeometry x="517.5" y="520" width="80" height="40" as="geometry" />
        </mxCell>
        <mxCell id="3fFJmNPRNffP4QOuDfKV-75" value="&lt;p class=&quot;MsoNormal&quot;&gt;&lt;font style=&quot;font-size: 16px;&quot;&gt;报警状态&lt;/font&gt;&lt;/p&gt;" style="ellipse;whiteSpace=wrap;html=1;" vertex="1" parent="1">
          <mxGeometry x="420" y="330" width="80" height="40" as="geometry" />
        </mxCell>
        <mxCell id="3fFJmNPRNffP4QOuDfKV-76" value="" style="endArrow=none;html=1;rounded=0;exitX=0.25;exitY=0;exitDx=0;exitDy=0;" edge="1" parent="1" source="3fFJmNPRNffP4QOuDfKV-3" target="3fFJmNPRNffP4QOuDfKV-75">
          <mxGeometry width="50" height="50" relative="1" as="geometry">
            <mxPoint x="478" y="430" as="sourcePoint" />
            <mxPoint x="715" y="420" as="targetPoint" />
          </mxGeometry>
        </mxCell>
        <mxCell id="3fFJmNPRNffP4QOuDfKV-77" value="" style="endArrow=none;html=1;rounded=0;exitX=0.593;exitY=-0.01;exitDx=0;exitDy=0;entryX=0.038;entryY=0.74;entryDx=0;entryDy=0;entryPerimeter=0;exitPerimeter=0;" edge="1" parent="1" source="3fFJmNPRNffP4QOuDfKV-3" target="3fFJmNPRNffP4QOuDfKV-71">
          <mxGeometry width="50" height="50" relative="1" as="geometry">
            <mxPoint x="700" y="490" as="sourcePoint" />
            <mxPoint x="795" y="450" as="targetPoint" />
          </mxGeometry>
        </mxCell>
        <mxCell id="3fFJmNPRNffP4QOuDfKV-78" value="" style="endArrow=none;html=1;rounded=0;exitX=1;exitY=0;exitDx=0;exitDy=0;entryX=0;entryY=0.5;entryDx=0;entryDy=0;" edge="1" parent="1" source="3fFJmNPRNffP4QOuDfKV-3" target="3fFJmNPRNffP4QOuDfKV-72">
          <mxGeometry width="50" height="50" relative="1" as="geometry">
            <mxPoint x="700" y="504.18" as="sourcePoint" />
            <mxPoint x="831.2025020771409" y="530.0039911435707" as="targetPoint" />
          </mxGeometry>
        </mxCell>
        <mxCell id="3fFJmNPRNffP4QOuDfKV-79" value="" style="endArrow=none;html=1;rounded=0;exitX=1;exitY=0.5;exitDx=0;exitDy=0;entryX=0.018;entryY=0.33;entryDx=0;entryDy=0;entryPerimeter=0;" edge="1" parent="1" source="3fFJmNPRNffP4QOuDfKV-3" target="3fFJmNPRNffP4QOuDfKV-69">
          <mxGeometry width="50" height="50" relative="1" as="geometry">
            <mxPoint x="695" y="510" as="sourcePoint" />
            <mxPoint x="846" y="526" as="targetPoint" />
          </mxGeometry>
        </mxCell>
        <mxCell id="3fFJmNPRNffP4QOuDfKV-80" value="" style="endArrow=none;html=1;rounded=0;exitX=0.75;exitY=1;exitDx=0;exitDy=0;entryX=0.043;entryY=0.32;entryDx=0;entryDy=0;entryPerimeter=0;" edge="1" parent="1" source="3fFJmNPRNffP4QOuDfKV-3" target="3fFJmNPRNffP4QOuDfKV-70">
          <mxGeometry width="50" height="50" relative="1" as="geometry">
            <mxPoint x="638" y="587" as="sourcePoint" />
            <mxPoint x="742" y="570" as="targetPoint" />
          </mxGeometry>
        </mxCell>
        <mxCell id="3fFJmNPRNffP4QOuDfKV-81" value="" style="endArrow=none;html=1;rounded=0;exitX=0.5;exitY=1;exitDx=0;exitDy=0;entryX=0;entryY=0;entryDx=0;entryDy=0;" edge="1" parent="1" source="3fFJmNPRNffP4QOuDfKV-3" target="3fFJmNPRNffP4QOuDfKV-74">
          <mxGeometry width="50" height="50" relative="1" as="geometry">
            <mxPoint x="675" y="530" as="sourcePoint" />
            <mxPoint x="796" y="637" as="targetPoint" />
          </mxGeometry>
        </mxCell>
        <mxCell id="3fFJmNPRNffP4QOuDfKV-82" value="" style="endArrow=none;html=1;rounded=0;exitX=0.25;exitY=1;exitDx=0;exitDy=0;entryX=0.388;entryY=0.07;entryDx=0;entryDy=0;entryPerimeter=0;" edge="1" parent="1" source="3fFJmNPRNffP4QOuDfKV-3" target="3fFJmNPRNffP4QOuDfKV-73">
          <mxGeometry width="50" height="50" relative="1" as="geometry">
            <mxPoint x="615" y="540" as="sourcePoint" />
            <mxPoint x="680" y="690" as="targetPoint" />
          </mxGeometry>
        </mxCell>
        <mxCell id="3fFJmNPRNffP4QOuDfKV-128" value="&lt;span style=&quot;font-size: 16px;&quot;&gt;1&lt;/span&gt;" style="text;html=1;align=center;verticalAlign=middle;whiteSpace=wrap;rounded=0;" vertex="1" parent="1">
          <mxGeometry x="300" y="380" width="60" height="30" as="geometry" />
        </mxCell>
        <mxCell id="3fFJmNPRNffP4QOuDfKV-129" value="&lt;span style=&quot;font-size: 16px;&quot;&gt;N&lt;/span&gt;" style="text;html=1;align=center;verticalAlign=middle;whiteSpace=wrap;rounded=0;" vertex="1" parent="1">
          <mxGeometry x="377.5" y="453" width="60" height="30" as="geometry" />
        </mxCell>
      </root>
    </mxGraphModel>
  </diagram>
</mxfile>
